<?xml version="1.0" encoding="UTF-8" standalone="no"?>
<!-- Created with Inkscape (http://www.inkscape.org/) -->

<svg
   xmlns:dc="http://purl.org/dc/elements/1.1/"
   xmlns:cc="http://creativecommons.org/ns#"
   xmlns:rdf="http://www.w3.org/1999/02/22-rdf-syntax-ns#"
   xmlns:svg="http://www.w3.org/2000/svg"
   xmlns="http://www.w3.org/2000/svg"
   xmlns:sodipodi="http://sodipodi.sourceforge.net/DTD/sodipodi-0.dtd"
   xmlns:inkscape="http://www.inkscape.org/namespaces/inkscape"
   width="1488.189"
   height="1052.3622"
   id="svg2"
   version="1.1"
   inkscape:version="0.48.4 r9939"
   sodipodi:docname="levelA.svg">
  <defs
     id="defs4" />
  <sodipodi:namedview
     id="base"
     pagecolor="#ffffff"
     bordercolor="#666666"
     borderopacity="1.0"
     inkscape:pageopacity="0.0"
     inkscape:pageshadow="2"
     inkscape:zoom="0.24871688"
     inkscape:cx="237.96289"
     inkscape:cy="677.79913"
     inkscape:document-units="cm"
     inkscape:current-layer="layer1"
     showgrid="true"
     units="cm"
     showguides="true"
     gridtolerance="10"
     inkscape:window-width="1539"
     inkscape:window-height="876"
     inkscape:window-x="61"
     inkscape:window-y="24"
     inkscape:window-maximized="1"
     inkscape:object-nodes="true"
     inkscape:snap-smooth-nodes="true"
     inkscape:object-paths="true">
    <inkscape:grid
       type="xygrid"
       id="grid2985"
       empspacing="5"
       visible="true"
       enabled="true"
       snapvisiblegridlinesonly="true"
       dotted="false"
       units="cm"
       spacingx="1cm"
       spacingy="1cm" />
  </sodipodi:namedview>
  <metadata
     id="metadata7">
    <rdf:RDF>
      <cc:Work
         rdf:about="">
        <dc:format>image/svg+xml</dc:format>
        <dc:type
           rdf:resource="http://purl.org/dc/dcmitype/StillImage" />
        <dc:title></dc:title>
        <cc:license
           rdf:resource="" />
      </cc:Work>
    </rdf:RDF>
  </metadata>
  <g
     inkscape:label="Layer 1"
     inkscape:groupmode="layer"
     id="layer1"
     transform="translate(0,0.01216106)">
    <path
       style="fill:none;stroke:black;stroke-width:2.85432577px;stroke-linecap:butt;stroke-linejoin:miter;stroke-opacity:1"
       d="m 720.44957,-811.49476 c -47.324,36.6298 -118.6959,25.0831 -157.1785,79.0062 -61.1209,54.0494 -127.3246,151.0569 -65.7736,228.5491 52.1856,65.0652 113.7167,123.6888 180.1099,174.3233 49.5348,33.4943 107.4677,61.7669 167.8899,62.9446 65.4765,-10.1072 109.6009,-72.7711 130.5591,-130.9874 25.48223,-88.5728 -96.9203,-71.0457 -127.452,-131.2537 -26.7789,-57.614 -9.9083,-127.6314 -44.5009,-185.1125 -8.5747,-39.2885 -43.5176,-138.3925 -84.6355,-101.3529 l 0.9328,3.69 0.049,0.1935 z"
       id="path3007"
       inkscape:connector-curvature="0" />
    <path
       style="fill:none;stroke:black;stroke-width:2.85432577px;stroke-linecap:butt;stroke-linejoin:miter;stroke-opacity:1"
       d="m 885.82677,-10.642104 c -47.2962,43.71536 -63.1895,112.137804 -50.6921,174.004084 6.4005,43.59523 24.7199,84.28947 38.9858,125.316 11.845,94.73287 94.4816,155.32704 163.66923,210.64727 55.7764,33.21884 117.994,55.34103 177.8856,80.50579 63.5968,23.90415 125.8116,51.89724 189.9417,74.05383 62.4348,16.24808 122.763,-30.32755 144.6602,-86.65268 18.0134,-37.33883 16.7229,-79.28606 15.1302,-119.40263 C 1571.4946,290.29881 1511.2917,138.9448 1434.8742,4.1029356 1371.6775,-55.507574 1337.1967,-147.11381 1253.9384,-183.803 c -32.8569,-17.48046 -71.0703,-2.39615 -139.5918,-5.51872 -68.5216,-3.1226 -156.61363,88.48452 -228.51983,178.679616 z"
       id="path3013"
       inkscape:connector-curvature="0"
       sodipodi:nodetypes="cccccccccccc" />
    <path
       style="fill:none;stroke:black;stroke-width:2.85432577px;stroke-linecap:butt;stroke-linejoin:miter;stroke-opacity:1"
       d="m -421.69863,1196.4259 c -65.42663,-24.6105 -143.40384,-42.1527 -207.25838,-3.6268 -97.54256,29.2395 -199.26042,65.0325 -268.64797,143.6847 -34.93683,31.5069 -5.45846,113.0204 -50.03555,148.6821 -55.72137,44.5771 -128.98647,72.1179 -150.41477,140.3865 -12.6962,68.6301 26.3935,137.172 80.0651,177.6372 32.74107,46.4201 101.18015,38.1463 140.29306,4.7687 47.84937,-30.2738 60.68759,-89.3501 101.6636,-126.1926 45.87221,-46.372 94.57101,-92.845 118.16518,-155.299 36.11095,-75.8556 49.40846,-167.8047 109.83342,-226.832 39.77959,-38.8594 71.35814,-79.9657 126.33631,-103.2088 z"
       id="path3015"
       inkscape:connector-curvature="0"
       sodipodi:nodetypes="cccscccccsc" />
    <path
       style="fill:none;stroke:black;stroke-width:2.85432577px;stroke-linecap:butt;stroke-linejoin:miter;stroke-opacity:1"
       d="m 650.78187,871.48589 c -79.9497,199.97261 -196.3221,456.88981 -31.994,647.21871 136.6314,137.3682 340.7791,0.682 492.21443,99.6628 145.8374,92.9294 272.9349,210.8014 458.8339,185.6671 199.3113,43.0988 399.6644,17.0939 598.6083,-12.3524 226.5296,65.8281 527.9598,-115.7178 435.5273,-374.7862 -75.657,-184.8341 -313.0082,-95.6617 -463.0224,-156.1857 -146.0627,-78.3093 -305.6155,-49.0685 -456.7755,-71.9354 -189.6583,-120.2282 -306.0505,-281.90289 -491.0702,-410.30853"
       id="path3019"
       inkscape:connector-curvature="0"
       sodipodi:nodetypes="ccccccccc" />
    <path
       style="fill:none;stroke:black;stroke-width:2.85432577px;stroke-linecap:butt;stroke-linejoin:miter;stroke-opacity:1"
       d="m 2659.4973,-1031.4902 c -17.7114,51.71854 -101.8187,39.43664 -109.6381,106.05734 -38.0619,88.7585 19.6041,190.8522 97.4193,236.7115 59.7482,67.261 138.8272,-9.3343 139.4369,-79.1563 17.1325,-80.1925 -25.7217,-157.21 -76.0001,-216.3304 6.3623,-34.79544 -70.3309,-51.23454 -55.3585,-45.64494 l 2.9471,-1.1653 1.1934,-0.4719 0,0 z"
       id="path3037"
       inkscape:connector-curvature="0" />
    <path
       id="path3041"
       style="fill:none;stroke:black;stroke-width:2.85432577px;stroke-linecap:butt;stroke-linejoin:miter;stroke-opacity:1"
       d="m 1036.1158,857.21426 c 13.7392,33.58289 14.2717,28.54326 28.5433,57.08652 M 864.85627,885.75752 c 10.3068,32.2244 5.198,56.84855 14.2716,85.62978"
       inkscape:connector-curvature="0"
       sodipodi:nodetypes="cccc" />
    <path
       style="fill:none;stroke:black;stroke-width:2.85432577px;stroke-linecap:butt;stroke-linejoin:miter;stroke-opacity:1"
       d="m -462.40517,-298.78766 c 93.57241,61.7619 76.40993,218.078136 192.5004,254.412786 71.72487,7.57998 149.93694,33.72143 217.478542,-8.11527 108.8286,-54.155976 142.3442,-185.575416 246.515998,-246.297516"
       id="path3044" />
    <path
       style="fill:none;stroke:black;stroke-width:2.85432577px;stroke-linecap:butt;stroke-linejoin:miter;stroke-opacity:1"
       d="m 850.58467,214.991 c -96.004,-64.26763 -194.156,-104.57476 -292.4594,-38.99643 -17.4124,8.86819 -36.703,15.71966 -56.5633,13.85296 -93.4921,-106.852234 -142.562,-242.136024 -206.1946,-366.28434 -77.9059,-108.85315 -151.2829,-220.83495 -223.775098,-333.19965 -57.6167,-90.4726 -187.504902,-140.0516 -280.065962,-72.0049 -104.64394,78.0219 -129.63296,228.6822 -250.62726,290.0884 -93.13833,66.2523 -164.04763,161.58312 -205.39721,267.789626 -114.42224,120.99393 -160.61419,291.417864 -159.98085,454.786054 -70.80919,79.90185 22.78432,207.80883 119.71173,164.29621 90.25121,-40.73822 104.93429,-149.01626 114.27541,-236.76803 20.26923,-121.40703 96.26108,93.96018 170.63901,11.84523 82.72615,-48.63066 131.98077,-156.75863 235.15833,-166.81521 114.325202,27.2457 199.678202,117.22307 309.3947,156.28166 81.9724,41.46693 169.0685,130.93591 126.2054,229.11452 -35.9295,88.41528 49.8577,161.2672 119.2265,199.61372 59.776,37.91909 115.1807,88.7318 191.56,82.01954 92.2526,2.16066 186.2085,-12.41755 276.5457,12.65351 137.5763,10.63105 270.31613,-49.31165 382.16653,-122.73652 48.7886,-32.02762 115.4157,-74.57262 115.4157,-131.65913"
       id="path3042" />
    <path
       style="fill:none;stroke:black;stroke-width:2.85432577px;stroke-linecap:butt;stroke-linejoin:miter;stroke-opacity:1"
       d="m 501.56197,189.84753 c -92.7047,77.40278 -92.29316,82.1673 -121.9411,110.77324 -45.95295,44.3379 -167.25174,145.23378 -167.02244,149.36705"
       id="path3043"
       inkscape:connector-curvature="0"
       sodipodi:nodetypes="csc" />
    <path
       style="fill:none;stroke:black;stroke-width:2.85432577px;stroke-linecap:butt;stroke-linejoin:miter;stroke-opacity:1"
       d="M 2306.2907,1328.178 C 2259.8383,1032.9623 2114.1704,748.88781 1890.0584,549.92673 1791.6207,482.18482 1665.9296,475.7518 1564.1661,414.79379 m 570.8651,856.29771 C 2131.9051,1019.6701 1931.7987,832.73505 1748.8949,687.31005 1675.8981,622.02152 1611.5653,635.893 1549.8944,557.51008"
       id="path3089"
       inkscape:connector-curvature="0"
       sodipodi:nodetypes="cccccc" />
    <path
       style="fill:none;stroke:black;stroke-width:2.85432577px;stroke-linecap:butt;stroke-linejoin:miter;stroke-opacity:1"
       d="m 1778.2405,714.49798 c -14.4112,46.48452 -33.395,72.16732 -68.3294,104.61441 -33.489,27.17866 -52.9315,76.19336 -102.9239,67.43581 -52.6346,5.29503 -91.6843,46.64471 -110.3053,93.81235 -25.9057,57.10435 43.7542,78.72175 86.1007,86.86755 45.7908,8.0093 82.5188,-32.7659 116.5643,-57.8841 37.2062,-23.77787 17.7017,-69.98392 13.7727,-96.41047 26.7396,-28.62201 60.705,-49.92581 83.0018,-82.98404 10.4254,-23.60299 53.4772,-44.09337 53.4772,-58.36499"
       id="path3095"
       inkscape:connector-curvature="0"
       sodipodi:nodetypes="ccccccccc" />
    <path
       style="fill:none;stroke:black;stroke-width:2.85432577px;stroke-linecap:butt;stroke-linejoin:miter;stroke-opacity:1"
       d="m 607.96697,971.3873 c 57.4975,0.61479 114.5966,-11.3854 171.9369,-2.48766 69.2059,-0.74104 140.537,8.84353 205.7983,-20.74327 80.19033,-29.66752 157.09833,-71.38832 235.81123,-106.71936 9.5458,-4.28474 14.4052,-12.766 28.6769,-12.766"
       id="path3137"
       inkscape:connector-curvature="0"
       sodipodi:nodetypes="cccac" />
    <path
       style="fill:none;stroke:black;stroke-width:2.85432577px;stroke-linecap:butt;stroke-linejoin:miter;stroke-opacity:1"
       d="m -644.24775,656.99192 c 7.29297,-14.7936 12.67435,-32.36831 27.63452,-41.34072 8.22332,-2.23285 15.82222,4.19997 21.3267,9.5735 7.50859,8.57776 13.28426,18.51861 21.0313,26.91814 7.5204,8.30084 7.77772,19.87205 12.85494,29.41243 4.18969,8.08137 4.54294,19.16275 -3.66439,24.81316 -6.77973,10.17399 -18.29637,16.965 -30.61601,17.21473 -12.91345,-0.89038 -26.34331,-0.22549 -38.62425,-5.13556 -8.03561,-4.94147 -18.33504,-6.08323 -23.89678,-14.42867 -4.12884,-7.07276 -14.18728,-15.74081 -4.38305,-22.45207 6.32553,-8.02277 13.30396,-15.62349 18.33702,-24.57494 z"
       id="path3145"
       inkscape:connector-curvature="0" />
    <path
       style="fill:none;stroke:black;stroke-width:2.85432577px;stroke-linecap:butt;stroke-linejoin:miter;stroke-opacity:1"
       d="m -581.40018,819.12489 c 2.86426,-5.77079 8.28705,-9.90674 12.9813,-14.31921 4.93576,-4.63948 9.16809,-11.7129 15.87088,-12.69225 5.11775,-0.74774 10.56152,2.3345 14.38392,5.81872 8.75647,7.98175 11.39561,20.80078 16.31649,31.57897 2.44859,5.36314 4.62538,10.85652 6.55527,16.42736 2.20623,6.36854 5.8836,12.65277 5.72932,19.39086 -0.0813,3.54916 -1.31076,7.2563 -3.48213,10.0649 -4.92195,6.36634 -12.66005,10.29769 -20.09209,13.38324 -8.95504,3.71788 -19.22288,8.5426 -28.51194,5.76252 -12.8443,-3.84412 -24.57243,-15.5174 -28.56509,-28.31631 -4.75648,-15.24747 1.71302,-32.79201 8.81407,-47.0988 z"
       id="path3147"
       inkscape:connector-curvature="0"
       sodipodi:nodetypes="ssssssssssss" />
    <path
       style="fill:none;stroke:black;stroke-width:2.85432577px;stroke-linecap:butt;stroke-linejoin:miter;stroke-opacity:1"
       d="m -571.30369,1017.3613 c 4.15984,-15.3988 24.11329,-15.1346 34.69793,-24.57552 12.96974,-8.18712 28.35769,-10.08705 43.00492,-11.45989 11.40132,1.7338 22.4076,6.08973 25.98047,17.99955 6.42012,10.42846 5.25896,22.76406 2.37315,34.09516 0.42281,13.5186 -0.38437,28.8286 -10.72365,38.9513 -6.64347,9.5297 -23.87543,10.1059 -33.83132,4.891 -15.71238,-9.2617 -32.40724,-17.8523 -44.68059,-31.7094 -12.68942,-19.9653 1.25548,-29.1422 -16.82091,-28.1922 l 0,0 z"
       id="path3149"
       inkscape:connector-curvature="0"
       sodipodi:nodetypes="ccccccccccc" />
    <path
       style="fill:none;stroke:black;stroke-width:2.85432577px;stroke-linecap:butt;stroke-linejoin:miter;stroke-opacity:1"
       d="m -248.33075,610.28282 c -8.38372,27.83515 -6.95959,27.47205 0,38.09223 9.94039,15.16883 32.2544,17.46693 49.88522,21.71648 4.68772,1.12988 12.2106,0.63303 14.4377,0.90282 m -64.32292,-61.08531 c -14.80538,3.66302 -33.05186,7.92273 -40.93191,20.44825 -12.18669,15.39007 -0.67488,32.52764 11.83554,42.86227 19.39038,19.70663 48.23286,37.18695 76.5619,26.71189 16.98589,-10.0986 15.62819,-34.93027 18.90489,-52.51568 2.1053,-22.38808 -30.09171,-40.54316 -52.09879,-37.81762 -9.65313,0.10904 -9.65256,-0.83192 -14.27163,0.31089 z"
       id="path3155"
       inkscape:connector-curvature="0"
       sodipodi:nodetypes="caacaccccca" />
    <path
       style="fill:none;stroke:black;stroke-width:2.85432577px;stroke-linecap:butt;stroke-linejoin:miter;stroke-opacity:1"
       d="m -438.21787,768.46052 c 3.61971,18.95093 12.00829,41.92565 30.89713,50.46996 17.92208,2.59886 37.34086,6.46784 54.95239,1.27246 23.39203,-15.36949 29.29169,-50.64519 11.76077,-72.67407 -12.70703,-17.53238 -36.79412,-31.77867 -58.43793,-22.26095 -11.28243,5.69453 -34.82531,3.12098 -39.17236,43.1926 z"
       id="path3157"
       inkscape:connector-curvature="0"
       sodipodi:nodetypes="cccccc" />
    <text
       xml:space="preserve"
       style="font-size:51.37786102px;font-style:normal;font-variant:normal;font-weight:normal;font-stretch:normal;line-height:125%;letter-spacing:0px;word-spacing:0px;fill:black;fill-opacity:1;stroke:none;font-family:Nightwatcher BB;-inkscape-font-specification:Nightwatcher BB"
       x="1614.2313"
       y="-472.2543"
       id="text3006"
       sodipodi:linespacing="125%"><tspan
         sodipodi:role="line"
         id="tspan3008"
         x="1614.2313"
         y="-472.2543">Long glide/flight (Alex)</tspan></text>
    <text
       xml:space="preserve"
       style="font-size:51.37786102px;font-style:normal;font-variant:normal;font-weight:normal;font-stretch:normal;line-height:125%;letter-spacing:0px;word-spacing:0px;fill:black;fill-opacity:1;stroke:none;font-family:Nightwatcher BB;-inkscape-font-specification:Nightwatcher BB"
       x="-211.30797"
       y="579.07031"
       id="text3010"
       sodipodi:linespacing="125%"><tspan
         sodipodi:role="line"
         id="tspan3012"
         x="-211.30797"
         y="579.07031">Climb (Tanner)</tspan></text>
    <text
       xml:space="preserve"
       style="font-size:51.37786102px;font-style:normal;font-variant:normal;font-weight:normal;font-stretch:normal;line-height:125%;letter-spacing:0px;word-spacing:0px;fill:black;fill-opacity:1;stroke:none;font-family:Nightwatcher BB;-inkscape-font-specification:Nightwatcher BB"
       x="1072.7042"
       y="141.19461"
       id="text3014"
       sodipodi:linespacing="125%"><tspan
         sodipodi:role="line"
         id="tspan3016"
         x="1072.7042"
         y="141.19461">Very high up</tspan></text>
    <text
       xml:space="preserve"
       style="font-size:51.37786102px;font-style:normal;font-variant:normal;font-weight:normal;font-stretch:normal;line-height:125%;letter-spacing:0px;word-spacing:0px;fill:black;fill-opacity:1;stroke:none;font-family:Nightwatcher BB;-inkscape-font-specification:Nightwatcher BB"
       x="1507.0795"
       y="985.65887"
       id="text3018"
       sodipodi:linespacing="125%"><tspan
         sodipodi:role="line"
         id="tspan3020"
         x="1507.0795"
         y="985.65887">Secret Cave</tspan></text>
    <text
       xml:space="preserve"
       style="font-size:51.37786102px;font-style:normal;font-variant:normal;font-weight:normal;font-stretch:normal;line-height:125%;letter-spacing:0px;word-spacing:0px;fill:black;fill-opacity:1;stroke:none;font-family:Nightwatcher BB;-inkscape-font-specification:Nightwatcher BB"
       x="1364.3634"
       y="757.31287"
       id="text3022"
       sodipodi:linespacing="125%"><tspan
         sodipodi:role="line"
         id="tspan3024"
         x="1364.3634"
         y="757.31287">Narrow tunnel (Tanner)</tspan></text>
    <path
       id="path3036"
       style="fill:none;stroke:black;stroke-width:2.85432577px;stroke-linecap:butt;stroke-linejoin:miter;stroke-opacity:1"
       d="m 2534.6368,-755.47976 142.7163,-28.5432 -55.3059,100.15251 M 1364.3633,72.274706 2677.3531,-784.02296" />
  </g>
</svg>
