<?xml version="1.0" encoding="UTF-8" standalone="no"?>
<!-- Created with Inkscape (http://www.inkscape.org/) -->

<svg
   xmlns:dc="http://purl.org/dc/elements/1.1/"
   xmlns:cc="http://creativecommons.org/ns#"
   xmlns:rdf="http://www.w3.org/1999/02/22-rdf-syntax-ns#"
   xmlns:svg="http://www.w3.org/2000/svg"
   xmlns="http://www.w3.org/2000/svg"
   xmlns:sodipodi="http://sodipodi.sourceforge.net/DTD/sodipodi-0.dtd"
   xmlns:inkscape="http://www.inkscape.org/namespaces/inkscape"
   width="512"
   height="512"
   id="svg2"
   version="1.1"
   inkscape:version="0.48.4 r9939"
   sodipodi:docname="player.svg"
   inkscape:export-filename="/home/daniel/Documents/C++/ScumOfTheEarth/media/player.png"
   inkscape:export-xdpi="90"
   inkscape:export-ydpi="90">
  <defs
     id="defs4" />
  <sodipodi:namedview
     id="base"
     pagecolor="#ffffff"
     bordercolor="#666666"
     borderopacity="1.0"
     inkscape:pageopacity="0.0"
     inkscape:pageshadow="2"
     inkscape:zoom="1"
     inkscape:cx="255.66053"
     inkscape:cy="244.74874"
     inkscape:document-units="px"
     inkscape:current-layer="layer1"
     showgrid="false"
     inkscape:window-width="1600"
     inkscape:window-height="845"
     inkscape:window-x="0"
     inkscape:window-y="27"
     inkscape:window-maximized="1" />
  <metadata
     id="metadata7">
    <rdf:RDF>
      <cc:Work
         rdf:about="">
        <dc:format>image/svg+xml</dc:format>
        <dc:type
           rdf:resource="http://purl.org/dc/dcmitype/StillImage" />
        <dc:title></dc:title>
      </cc:Work>
    </rdf:RDF>
  </metadata>
  <g
     inkscape:label="Layer 1"
     inkscape:groupmode="layer"
     id="layer1"
     transform="translate(0,-540.36218)">
    <path
       style="fill:none;stroke:black;stroke-width:4;stroke-linecap:butt;stroke-linejoin:miter;stroke-miterlimit:4;stroke-opacity:1;stroke-dasharray:none"
       d="m 261,620.61218 52,-24.5"
       id="path4072"
       inkscape:connector-curvature="0"
       sodipodi:nodetypes="cc" />
    <path
       style="fill:none;stroke:black;stroke-width:4;stroke-linecap:butt;stroke-linejoin:round;stroke-miterlimit:4;stroke-opacity:1;stroke-dasharray:none"
       d="m 213,594.11218 40,28.5"
       id="path4074"
       inkscape:connector-curvature="0" />
    <path
       sodipodi:type="arc"
       style="fill:#ffdead;fill-opacity:1;fill-rule:nonzero;stroke:black;stroke-width:0.49900001;stroke-miterlimit:4;stroke-opacity:1;stroke-dasharray:none"
       id="path3840"
       sodipodi:cx="229"
       sodipodi:cy="170.5"
       sodipodi:rx="55"
       sodipodi:ry="56.5"
       d="m 284,170.5 c 0,31.20409 -24.62434,56.5 -55,56.5 -30.37566,0 -55,-25.29591 -55,-56.5 0,-31.20409 24.62434,-56.5 55,-56.5 30.37566,0 55,25.29591 55,56.5 z"
       transform="matrix(1.4763919,0,0,1.4763919,-80.085288,389.19761)" />
    <rect
       style="fill:#ff4500;fill-opacity:1;fill-rule:nonzero;stroke:black;stroke-width:0.73671955;stroke-miterlimit:4;stroke-opacity:1;stroke-dasharray:none"
       id="rect3842"
       width="82.677948"
       height="183.07259"
       x="216.66948"
       y="721.3858" />
    <path
       style="fill:none;stroke:black;stroke-width:1.47639203px;stroke-linecap:butt;stroke-linejoin:miter;stroke-opacity:1"
       d="m 297.87103,768.63033 c 34.50631,2.95079 65.4661,24.34349 93.01269,63.48485"
       id="path3846"
       inkscape:connector-curvature="0"
       sodipodi:nodetypes="cc" />
    <path
       style="fill:none;stroke:black;stroke-width:1.47639203px;stroke-linecap:butt;stroke-linejoin:miter;stroke-opacity:1"
       d="m 216.66948,759.77197 c -19.12469,6.73654 -28.07447,26.3554 -41.20422,40.19626 -10.04663,13.41189 -18.34428,31.01843 -36.13125,35.33508 -4.5371,1.42495 -9.95737,3.45989 -11.248,8.62299"
       id="path3850"
       inkscape:connector-curvature="0" />
    <path
       style="fill:none;stroke:black;stroke-width:1.47639203px;stroke-linecap:butt;stroke-linejoin:miter;stroke-opacity:1"
       d="m 398.10193,815.89023 c -22.65089,-14.95182 -30.14172,9.5771 -20.46307,21.52051"
       id="path3854"
       inkscape:connector-curvature="0"
       sodipodi:nodetypes="cc" />
    <path
       style="fill:none;stroke:black;stroke-width:1.47639203px;stroke-linecap:butt;stroke-linejoin:miter;stroke-opacity:1"
       d="m 122.35952,830.13216 c 13.44612,-26.94759 45.88114,28.59264 12.04909,23.96512"
       id="path3856"
       inkscape:connector-curvature="0"
       sodipodi:nodetypes="cc" />
    <path
       style="fill:none;stroke:black;stroke-width:1.47639203px;stroke-linecap:butt;stroke-linejoin:miter;stroke-opacity:1"
       d="m 279.46858,904.72705 c 5.80966,21.3819 24.3279,29.03696 25.59302,52.30136 2.38674,13.0733 1.66578,27.33485 9.05106,38.96626"
       id="path3858"
       inkscape:connector-curvature="0"
       sodipodi:nodetypes="ccc" />
    <path
       style="fill:none;stroke:black;stroke-width:1.47639203px;stroke-linecap:butt;stroke-linejoin:miter;stroke-opacity:1"
       d="m 232.9098,902.98198 c 1.01477,31.86211 -6.03105,65.80848 9.39088,95.44661 1.21157,1.71271 1.6373,10.93011 3.89677,9.37721"
       id="path3860"
       inkscape:connector-curvature="0" />
    <path
       style="fill:#d2691e;stroke:black;stroke-width:1.47639203px;stroke-linecap:butt;stroke-linejoin:miter;stroke-opacity:1"
       d="m 227.00422,1006.3294 -0.8954,32.9892 c 0,0 36.82043,-0.1613 49.93692,0.4644 15.00542,-1.7724 1.56609,-16.6923 -2.07365,-23.5524 -6.11678,-10.4557 -19.24046,-5.3246 -28.95591,-8.3308 -6.02981,-0.7302 -18.01196,-1.5704 -18.01196,-1.5704 z"
       id="path3862"
       inkscape:connector-curvature="0"
       sodipodi:nodetypes="cccccc" />
    <path
       style="fill:#d2691e;fill-opacity:1;stroke:black;stroke-width:1.47639203px;stroke-linecap:butt;stroke-linejoin:miter;stroke-opacity:1"
       d="m 304.11263,994.05729 c 3.68058,10.23411 2.03351,31.99591 2.03351,31.99591 0,0 36.79536,2.9218 51.57394,0 5.77619,-9.4562 -6.16775,-23.3018 -14.39741,-28.08305 -13.00574,-1.71987 -39.21004,-3.90749 -39.21004,-3.90749 z"
       id="path3862-8"
       inkscape:connector-curvature="0"
       sodipodi:nodetypes="cccccc" />
    <path
       sodipodi:type="arc"
       style="fill:black;fill-opacity:1;fill-rule:nonzero;stroke:black;stroke-width:0.49900001;stroke-miterlimit:4;stroke-opacity:1;stroke-dasharray:none"
       id="path4031"
       sodipodi:cx="275.5"
       sodipodi:cy="92.5"
       sodipodi:rx="7.5"
       sodipodi:ry="9.5"
       d="m 283,92.5 a 7.5,9.5 0 1 1 -15,0 7.5,9.5 0 1 1 15,0 z"
       transform="matrix(1.2564234,0,0,1.2564234,-64.15749,517.89301)" />
    <path
       sodipodi:type="arc"
       style="fill:black;fill-opacity:1;fill-rule:nonzero;stroke:black;stroke-width:0.49900001;stroke-miterlimit:4;stroke-opacity:1;stroke-dasharray:none"
       id="path4031-0"
       sodipodi:cx="275.5"
       sodipodi:cy="92.5"
       sodipodi:rx="7.5"
       sodipodi:ry="9.5"
       d="m 283,92.5 a 7.5,9.5 0 1 1 -15,0 7.5,9.5 0 1 1 15,0 z"
       transform="matrix(1.2564234,0,0,1.2564234,-114.14465,519.89302)" />
    <path
       style="fill:black;stroke:black;stroke-width:1.31474566px;stroke-linecap:butt;stroke-linejoin:miter;stroke-opacity:1"
       d="m 280.12914,677.87847 c -11.89995,0.45346 -23.96166,-1.02374 -35.74644,0.97626 -7.08579,2.27686 -8.08075,10.98709 -4.77546,16.70984 3.08586,6.22213 10.44202,4.61839 15.99134,4.094 7.73684,-0.31595 19.09567,1.00993 26.82845,0.48514 -6.12902,-7.70424 -10.01336,-11.74386 -2.29789,-22.26581 z"
       id="path4053"
       inkscape:connector-curvature="0"
       sodipodi:nodetypes="ccccccc" />
  </g>
</svg>
