<?xml version="1.0" encoding="UTF-8" standalone="no"?>
<!-- Created with Inkscape (http://www.inkscape.org/) -->

<svg
   xmlns:dc="http://purl.org/dc/elements/1.1/"
   xmlns:cc="http://creativecommons.org/ns#"
   xmlns:rdf="http://www.w3.org/1999/02/22-rdf-syntax-ns#"
   xmlns:svg="http://www.w3.org/2000/svg"
   xmlns="http://www.w3.org/2000/svg"
   xmlns:sodipodi="http://sodipodi.sourceforge.net/DTD/sodipodi-0.dtd"
   xmlns:inkscape="http://www.inkscape.org/namespaces/inkscape"
   width="517.08405"
   height="561.53766"
   id="svg2"
   version="1.1"
   inkscape:version="0.48.4 r9939"
   sodipodi:docname="FirstTreeLeaves.svg"
   inkscape:export-filename="/run/media/daniel/SeagateExternal/ScumOfTheEarth/media/LightAndDark/Plants/FirstTreeLeaves.png"
   inkscape:export-xdpi="90"
   inkscape:export-ydpi="90">
  <defs
     id="defs4" />
  <sodipodi:namedview
     id="base"
     pagecolor="#ffffff"
     bordercolor="#666666"
     borderopacity="1.0"
     inkscape:pageopacity="0.0"
     inkscape:pageshadow="2"
     inkscape:zoom="0.66751876"
     inkscape:cx="195.90042"
     inkscape:cy="285.21888"
     inkscape:document-units="px"
     inkscape:current-layer="layer1"
     showgrid="false"
     inkscape:window-width="960"
     inkscape:window-height="1014"
     inkscape:window-x="0"
     inkscape:window-y="27"
     inkscape:window-maximized="0"
     fit-margin-top="0"
     fit-margin-left="0"
     fit-margin-right="0"
     fit-margin-bottom="0" />
  <metadata
     id="metadata7">
    <rdf:RDF>
      <cc:Work
         rdf:about="">
        <dc:format>image/svg+xml</dc:format>
        <dc:type
           rdf:resource="http://purl.org/dc/dcmitype/StillImage" />
        <dc:title></dc:title>
      </cc:Work>
    </rdf:RDF>
  </metadata>
  <g
     inkscape:label="Layer 1"
     inkscape:groupmode="layer"
     id="layer1"
     transform="translate(-18.273868,-137.9485)">
    <path
       style="fill:#000000;fill-opacity:1;stroke:#000000;stroke-width:0.90044206px;stroke-linecap:butt;stroke-linejoin:miter;stroke-opacity:1"
       d="m 73.415928,201.00462 c -23.534368,68.82464 38.880642,120.91236 90.000742,123.93871 23.52368,1.39261 28.51409,2.83874 43.10284,15.34957 -6.61482,-17.33313 -16.77013,-24.7437 -11.34486,-34.052 25.69753,-44.08997 -5.82964,-129.68449 -76.32353,-125.85821 -23.797634,1.29169 -20.878285,-11.66098 -44.555215,-17.35556 11.883866,8.36529 3.7779,24.35584 -0.879977,37.97749 z"
       id="path2985"
       inkscape:connector-curvature="0"
       sodipodi:nodetypes="sscsscs" />
    <path
       style="fill:#000000;fill-opacity:1;stroke:#000000;stroke-width:0.90379399px;stroke-linecap:butt;stroke-linejoin:miter;stroke-opacity:1"
       d="m 319.18668,194.44174 c -75.95061,21.489 -82.29591,104.00657 -49.95708,142.47093 14.88119,17.69994 17.03748,22.09722 16.13783,39.57592 10.54806,-14.43428 10.04531,-25.87658 21.85132,-27.16979 55.9207,-6.1255 112.53404,-85.12698 60.98271,-133.70326 -17.40293,-16.3986 -13.75906,-30.08216 -25.00404,-50.29378 0.85501,13.21872 -8.97874,24.86692 -24.01074,29.11998 z"
       id="path2985-0"
       inkscape:connector-curvature="0"
       sodipodi:nodetypes="sscsscs" />
    <path
       style="fill:#000000;fill-opacity:1;stroke:#000000;stroke-width:1px;stroke-linecap:butt;stroke-linejoin:miter;stroke-opacity:1"
       d="m 61.966549,447.03556 c 50.354791,57.30873 154.456061,23.41385 189.943171,-20.56099 17.03205,-21.10574 21.61173,-25.09916 43.25866,-32.24415 -20.98125,-2.76704 -30.12152,-1.95229 -40.12543,-6.97335 -35.09734,-17.61569 -134.1811,-41.07552 -182.718812,6.83158 -19.262695,19.01243 -32.408832,25.82848 -53.55027,44.95061 15.884863,-6.76086 33.223485,-3.34963 43.192681,7.9963 z"
       id="path2985-02"
       inkscape:connector-curvature="0"
       sodipodi:nodetypes="sscsscs" />
    <path
       style="fill:#000000;fill-opacity:1;stroke:#000000;stroke-width:0.9180752px;stroke-linecap:butt;stroke-linejoin:miter;stroke-opacity:1"
       d="m 357.96546,401.5597 c 71.08514,30.401 132.27908,-32.42279 134.60418,-83.92192 1.06992,-23.6981 2.47933,-28.61583 15.11147,-42.20273 -17.70991,5.04924 -25.16908,14.6309 -34.81751,8.24766 -45.70112,-30.23502 -141.80064,-1.89576 -136.78659,69.88321 1.69265,24.23145 -10.37859,33.01811 -15.86684,56.4615 8.41369,-11.2418 23.68627,-14.48463 37.75529,-8.46772 z"
       id="path2985-02-9"
       inkscape:connector-curvature="0"
       sodipodi:nodetypes="sscsscs" />
    <path
       style="fill:#000000;fill-opacity:1;stroke:#000000;stroke-width:0.55217981px;stroke-linecap:butt;stroke-linejoin:miter;stroke-opacity:1"
       d="m 222.88309,161.54802 c -32.1564,33.45728 -10.73593,82.33741 17.17536,95.27495 12.84381,5.9534 15.25214,7.86226 20.01509,18.09198 1.04651,-11.18339 -2.62597,-17.57563 2.98386,-21.60761 26.57173,-19.09811 31.73153,-79.99489 -8.9573,-93.3454 -13.73588,-4.50694 -15.97168,-13.33554 -27.71882,-21.73735 4.3819,7.30814 2.86614,16.70165 -3.49819,23.32343 z"
       id="path2985-02-9-0"
       inkscape:connector-curvature="0"
       sodipodi:nodetypes="sscsscs"
       inkscape:transform-center-x="39.786331"
       inkscape:transform-center-y="-21.444806" />
    <path
       style="fill:#000000;fill-opacity:1;stroke:#000000;stroke-width:0.82004595px;stroke-linecap:butt;stroke-linejoin:miter;stroke-opacity:1"
       d="m 199.68449,582.15042 c 63.16971,27.29466 117.54961,-29.10987 119.61581,-75.34688 0.95078,-21.27665 2.20325,-25.6919 13.42878,-37.8905 -15.73788,4.53331 -22.36646,13.13593 -30.94052,7.40492 -40.61224,-27.14564 -126.01094,-1.70205 -121.55521,62.74263 1.50417,21.7555 -9.22293,29.64435 -14.10005,50.69232 7.47681,-10.09312 21.04878,-13.0046 33.55119,-7.60249 z"
       id="path2985-02-9-6"
       inkscape:connector-curvature="0"
       sodipodi:nodetypes="sscsscs" />
    <path
       style="fill:#000000;fill-opacity:1;stroke:#000000;stroke-width:1px;stroke-linecap:butt;stroke-linejoin:miter;stroke-opacity:1"
       d="m 197.74725,346.015 c 10.81657,27.89479 66.93742,27.995 97.13406,52.70352 26.53858,26.15774 26.69131,67.04075 49.6875,95.87066 23.04164,34.66508 50.02751,68.34795 58.83415,109.94843 5.05053,12.03896 0.84312,82.43175 19.98573,94.44852 15.38268,-3.26862 13.89406,-3.88474 31.57921,-7.31367 -6.69981,-16.91576 -12.04495,-83.52464 -31.9003,-121.93172 -18.72593,-36.2224 -7.51596,-26.95605 -54.16969,-84.05122 -20.28755,-39.87999 -44.85181,-78.0748 -73.70526,-111.62647 -5.16728,-5.18717 -35.31507,-21.3576 -49.00877,-23.49126 -92.34647,-14.38882 29.02853,-84.36377 21.70241,-87.72395 -18.908,-0.97467 -86.36,41.33502 -70.13904,83.16716 z"
       id="path3866"
       inkscape:connector-curvature="0"
       sodipodi:nodetypes="scccccsccscs" />
    <path
       style="fill:#000000;fill-opacity:1;stroke:#000000;stroke-width:0.64377469px;stroke-linecap:butt;stroke-linejoin:miter;stroke-opacity:1"
       d="m 425.48108,525.10088 c 52.0168,20.4284 89.63557,-7.59536 98.49707,-56.39259 2.84948,-15.6911 1.81426,-19.22883 11.05787,-28.35875 -12.86998,3.12741 -17.66492,7.59381 -25.47783,5.54214 -37.91709,-9.95707 -103.76311,-1.27388 -100.09407,46.95906 1.23861,16.28268 -21.02835,28.84359 -25.0444,44.59672 6.15674,-7.55409 30.7663,-16.38973 41.06136,-12.34658 z"
       id="path2985-02-9-01"
       inkscape:connector-curvature="0"
       sodipodi:nodetypes="sscsscs" />
  </g>
</svg>
